<?xml version="1.0" standalone="no"?>
<!DOCTYPE svg PUBLIC "-//W3C//DTD SVG 20010904//EN"
 "http://www.w3.org/TR/2001/REC-SVG-20010904/DTD/svg10.dtd">
<svg version="1.0" xmlns="http://www.w3.org/2000/svg"
 width="1116.000000pt" height="1280.000000pt" viewBox="0 0 1116.000000 1280.000000"
 preserveAspectRatio="xMidYMid meet">
<metadata>
Created by potrace 1.15, written by Peter Selinger 2001-2017
</metadata>
<g transform="translate(0.000000,1280.000000) scale(0.100000,-0.100000)"
fill="#000000" stroke="none">
<path d="M5440 12791 c-126 -19 -272 -67 -349 -116 -62 -38 -149 -144 -192
-230 -24 -48 -52 -130 -70 -204 -34 -142 -78 -244 -143 -335 -54 -75 -89 -107
-204 -185 -213 -143 -364 -389 -450 -731 -22 -91 -26 -127 -26 -265 -1 -88 3
-192 8 -231 16 -132 -23 -218 -123 -269 -83 -41 -111 -126 -111 -328 0 -353
95 -1158 162 -1375 25 -83 43 -119 77 -155 47 -51 77 -61 176 -56 201 8 257 4
306 -19 95 -46 87 -119 -19 -191 -110 -75 -300 -164 -952 -451 -446 -196 -612
-291 -732 -419 -110 -116 -175 -260 -219 -482 -22 -113 -294 -1987 -344 -2369
-68 -528 -112 -1030 -101 -1159 6 -66 5 -79 -18 -125 -66 -133 -286 -323 -726
-623 -762 -520 -1151 -881 -1310 -1216 -75 -156 -95 -299 -66 -465 61 -351
318 -621 691 -727 117 -34 298 -41 1255 -55 1958 -27 6979 11 7920 60 617 33
804 82 998 265 128 120 198 232 248 400 24 81 27 106 28 245 0 131 -4 169 -23
245 -65 248 -129 355 -328 545 -216 207 -468 400 -913 700 -622 419 -776 560
-772 705 7 297 -5 490 -64 980 -106 891 -378 2693 -428 2837 -72 205 -219 345
-521 493 -174 86 -296 135 -680 275 -468 171 -712 283 -842 387 -50 40 -58 81
-21 107 30 21 54 20 151 -5 149 -39 221 -25 296 56 117 127 187 408 246 987
31 313 46 651 35 791 -11 131 -29 173 -85 202 -46 23 -67 59 -89 157 -20 83
-36 267 -36 408 0 209 -34 369 -102 489 -44 77 -135 186 -282 341 -154 160
-269 311 -332 435 -37 74 -47 106 -55 173 -12 105 -38 173 -94 244 -87 111
-228 196 -395 238 -94 23 -289 34 -380 21z m239 -341 c93 -43 208 -188 343
-435 125 -229 303 -475 496 -689 264 -292 328 -418 302 -605 -11 -84 -72 -306
-96 -352 -7 -15 -26 -37 -41 -49 -38 -30 -85 -21 -189 34 -45 24 -104 51 -130
60 -142 47 -502 71 -924 63 -426 -9 -679 -31 -880 -78 -64 -15 -90 -17 -110
-9 -59 25 -93 120 -111 310 -30 316 36 429 450 785 176 150 192 167 234 250
38 75 57 149 68 263 14 152 53 235 155 335 118 114 319 168 433 117z m206
-2289 c258 -45 416 -108 533 -212 138 -121 177 -151 240 -181 50 -24 72 -29
104 -25 50 7 96 49 128 118 24 51 42 61 56 32 13 -32 17 -314 5 -458 -30 -362
-87 -571 -169 -618 -32 -19 -36 -19 -113 -2 -65 14 -88 15 -131 5 -139 -29
-253 -160 -308 -350 -41 -141 -37 -402 6 -507 22 -52 92 -122 154 -153 30 -15
163 -68 295 -118 750 -283 1161 -463 1360 -593 101 -67 195 -159 229 -227 98
-193 185 -597 266 -1232 55 -431 116 -858 161 -1120 16 -96 45 -265 64 -375
91 -537 62 -775 -118 -955 -78 -78 -163 -134 -338 -221 -550 -274 -1586 -639
-1815 -639 -64 0 -53 37 49 165 55 69 77 121 77 182 0 60 -16 106 -78 218 -25
44 -47 99 -50 122 -4 35 -1 43 18 53 39 21 133 4 309 -57 257 -88 322 -80 499
60 123 97 258 227 575 551 l297 304 -174 514 c-95 282 -191 558 -211 612 -99
262 -192 443 -270 523 -46 47 -56 53 -93 53 -58 0 -90 -17 -102 -56 -10 -29
-5 -52 45 -201 31 -92 83 -265 116 -383 125 -445 223 -742 280 -849 l29 -54
-23 -51 c-30 -64 -102 -159 -228 -302 -174 -197 -316 -310 -434 -347 -92 -28
-251 -28 -540 3 -430 45 -497 25 -777 -237 -182 -170 -278 -227 -278 -166 0
52 -142 187 -302 289 -213 135 -320 148 -598 72 -63 -17 -142 -37 -175 -44
-167 -37 -286 -1 -465 140 -48 37 -492 405 -563 466 -4 3 48 164 117 356 244
689 322 966 314 1120 -4 94 -29 124 -107 132 -48 4 -53 3 -84 -30 -99 -105
-225 -457 -457 -1279 l-72 -256 16 -54 c18 -63 102 -201 196 -321 80 -103 468
-493 572 -575 115 -91 176 -118 268 -118 65 0 97 8 245 59 135 47 183 60 234
60 53 1 65 -2 77 -19 19 -28 -9 -87 -78 -162 -67 -73 -95 -112 -103 -145 -11
-42 12 -102 70 -181 61 -83 88 -138 79 -161 -38 -98 -484 23 -1169 316 -237
102 -706 318 -780 360 -161 92 -247 170 -304 278 -84 160 -76 384 30 804 88
349 144 683 159 941 27 453 51 654 114 940 68 312 115 532 140 670 18 94 37
161 57 203 76 156 337 340 766 540 282 132 530 222 659 240 130 18 227 78 320
196 112 142 158 278 158 466 0 110 -4 134 -28 205 -84 243 -255 364 -438 311
-105 -30 -141 -20 -168 49 -7 17 -18 145 -26 286 -14 268 -31 408 -65 522 -36
120 -18 150 74 127 118 -28 227 14 359 139 46 43 108 92 138 109 115 64 316
118 525 142 139 15 513 5 650 -19z m3486 -7792 c712 -471 798 -530 969 -660
364 -277 489 -453 490 -689 0 -91 -25 -246 -51 -315 -44 -118 -163 -199 -364
-249 -253 -63 -621 -93 -1430 -118 -581 -18 -6129 -18 -6740 0 -1057 31 -1463
75 -1677 183 -155 78 -202 180 -202 434 0 116 3 137 27 197 37 96 86 167 185
270 138 143 318 285 802 628 135 96 337 242 450 325 347 256 421 298 545 314
176 22 332 -29 881 -285 381 -177 509 -227 712 -278 223 -57 261 -59 907 -63
787 -5 1893 12 2080 32 400 43 619 123 1350 494 226 115 411 209 412 210 1 0
295 -193 654 -430z"/>
</g>
</svg>
